<svg width="128" height="130" viewBox="0 0 128 130" fill="none" xmlns="http://www.w3.org/2000/svg">
<path d="M127.419 78.6551C127.139 73.1464 122.446 68.9083 116.937 69.1888C112.736 69.4033 109.281 72.1863 107.999 75.9375L92.8027 73.6823C92.8292 73.1811 92.8442 72.6772 92.8442 72.1699C92.8442 56.563 80.1925 43.9113 64.5856 43.9113C60.133 43.9113 55.9235 44.9443 52.177 46.778L38.5025 21.3289C40.4377 19.8629 41.9501 17.8031 42.7025 15.3007C44.5928 9.02043 41.0336 2.39702 34.7533 0.506759C28.4731 -1.38282 21.8497 2.17572 19.9594 8.45594C18.0692 14.7362 21.6284 21.3596 27.9079 23.2492C30.3845 23.9948 32.9101 23.8817 35.1816 23.1L48.9133 48.6547C42.5391 52.9112 37.9966 59.6905 36.7056 67.5648L20.3646 66.7232C19.9805 61.4398 15.5831 57.2705 10.2017 57.2705C4.56768 57.2705 0 61.8382 0 67.4715C0 73.1055 4.56768 77.6732 10.2017 77.6732C14.7919 77.6732 18.6725 74.6403 19.9533 70.4696L36.3481 71.3133C36.3399 71.5979 36.3263 71.8812 36.3263 72.1686C36.3263 81.8473 41.1943 90.3855 48.613 95.4789L35.6236 108.463C33.6802 107.075 31.3085 106.25 28.7387 106.249C22.18 106.248 16.8626 111.564 16.8612 118.123C16.8598 124.681 22.1759 129.999 28.7346 130C35.2933 130.001 40.6107 124.685 40.6121 118.127C40.6127 115.497 39.748 113.075 38.3017 111.107L51.9632 97.4502C55.7628 99.3513 60.0472 100.427 64.5849 100.427C78.4269 100.427 89.936 90.472 92.3642 77.3327L107.471 79.5744C107.472 79.6057 107.469 79.637 107.471 79.6683C107.751 85.1771 112.444 89.4152 117.954 89.1346C123.462 88.8568 127.699 84.1632 127.419 78.6551ZM29.647 17.4721C26.5577 16.5427 24.8077 13.2844 25.7371 10.1957C26.6666 7.10634 29.9242 5.35566 33.0136 6.28513C36.1029 7.21461 37.8529 10.4729 36.9235 13.5622C35.994 16.6516 32.7364 18.4016 29.647 17.4721ZM10.2017 73.4181C6.91758 73.4181 4.25582 70.7556 4.25582 67.4722C4.25582 64.1887 6.91758 61.527 10.2017 61.527C13.4852 61.527 16.1469 64.1887 16.1469 67.4722C16.1469 70.7556 13.4852 73.4181 10.2017 73.4181ZM28.7353 124.136C25.4164 124.135 22.7261 121.443 22.7267 118.125C22.7267 114.806 25.4185 112.115 28.7373 112.116C30.298 112.117 31.7157 112.717 32.7834 113.693L33.1702 114.08C34.1459 115.148 34.7452 116.566 34.7452 118.127C34.7458 121.446 32.0541 124.137 28.7353 124.136ZM64.5849 89.6583C54.9252 89.6583 47.0952 81.8282 47.0952 72.1693C47.0952 62.5096 54.9252 54.6796 64.5849 54.6796C74.2439 54.6796 82.0739 62.5096 82.0739 72.1693C82.0732 81.8282 74.2432 89.6583 64.5849 89.6583ZM117.693 84.0481C114.995 84.1856 112.696 82.1095 112.558 79.4109C112.421 76.7131 114.497 74.4143 117.195 74.2767C119.893 74.1392 122.192 76.2153 122.33 78.9139C122.467 81.6117 120.392 83.9105 117.693 84.0481Z" fill="#222222"/>
</svg>
